<svg xmlns="http://www.w3.org/2000/svg" width="437.662" height="332.632" fill="none" overflow="visible"><g><g><path d="M 428.36 86.338 C 426.516 76.786 421.805 68.026 414.328 60.328 C 408.064 53.863 400.727 50.445 393.1 50.445 C 387.35 50.545 381.748 52.284 376.953 55.457 L 350.833 71.844 L 327.409 86.548 C 326.818 86.919 326.206 87.27 325.565 87.631 L 323.33 88.913 L 323.33 86.658 C 323.33 86.157 323.33 85.826 323.33 85.506 C 323.38 84.704 323.46 83.902 323.55 83.11 C 325.775 64.397 321.887 47.739 311.994 33.587 C 296.408 11.296 275.29 0 249.23 0 C 245.061 0.008 240.897 0.28 236.762 0.812 C 201.11 5.322 174.339 33.056 171.613 68.266 C 169.799 92.141 177.947 112.307 195.858 128.193 L 199.015 131.02 L 201.311 133.095 L 200.429 133.636 L 198.985 134.528 C 198.033 135.139 197.171 135.68 196.279 136.162 C 183.16 143.292 171.152 152.301 160.638 162.903 C 158.813 164.707 156.739 166.752 153.812 166.752 C 153.382 166.75 152.952 166.71 152.529 166.631 C 151.665 166.449 150.786 166.352 149.903 166.341 C 149.419 166.337 148.935 166.38 148.46 166.471 C 145.712 167.045 143.239 168.532 141.444 170.691 L 140.993 171.272 L 140.381 170.851 C 136.748 168.057 131.776 167.766 127.843 170.119 C 123.833 172.354 122.23 175.882 122.57 181.896 L 122.57 182.558 L 121.919 182.698 C 113.68 184.492 110.162 186.326 111.054 196.389 L 111.114 197.031 L 109.531 197.462 C 106.424 198.294 103.517 199.076 101.793 202.002 C 100.593 204.226 100.511 206.885 101.572 209.179 C 101.683 209.429 101.793 209.7 101.903 209.97 C 102.224 210.875 102.684 211.724 103.266 212.486 C 106.163 215.824 104.94 218.821 103.176 221.557 C 95.739 233.234 88.232 245.121 80.995 256.587 L 80.995 256.647 L 79.742 258.592 C 77.497 262.153 75.249 265.715 72.997 269.276 C 71.544 271.581 70.08 273.877 68.607 276.202 L 66.382 279.71 L 65.71 279.249 L 63.706 277.876 C 62.062 276.703 60.508 275.611 58.885 274.648 L 58.825 274.648 L 58.754 274.648 C 58.458 274.653 58.179 274.789 57.993 275.019 C 57.756 275.295 57.667 275.668 57.752 276.022 C 57.777 276.154 57.828 276.28 57.903 276.392 C 59.907 278.056 62.082 279.58 64.137 281.053 C 64.879 281.595 65.773 281.89 66.693 281.895 C 67.154 281.896 67.613 281.814 68.046 281.655 C 68.403 281.514 68.772 281.407 69.148 281.334 C 78.089 279.86 87.079 278.417 95.779 277.014 L 96.431 276.914 C 103.467 275.784 110.503 274.645 117.539 273.496 L 122.35 272.714 L 123.082 272.604 C 130.639 271.381 138.437 270.128 146.044 268.595 C 154.393 266.951 161.65 262.501 168.676 258.191 C 170.851 256.858 173.096 255.475 175.351 254.182 C 179.641 251.746 183.781 249.27 188.161 246.654 L 188.281 246.584 L 194.184 243.066 L 195.257 242.425 L 196.199 254.122 C 196.267 254.919 196.932 255.532 197.732 255.535 L 197.813 255.535 C 198.648 255.518 199.316 254.837 199.316 254.001 L 199.316 242.194 L 311.894 242.194 L 312.575 247.436 C 312.671 248.359 313.48 249.04 314.405 248.978 C 315.331 248.916 316.041 248.133 316.013 247.206 C 316.013 246.695 316.013 246.203 316.013 245.702 L 316.013 244.88 C 315.985 243.954 316.052 243.027 316.214 242.114 C 316.404 241.272 316.665 240.46 316.915 239.668 C 317.326 238.561 317.612 237.411 317.767 236.241 C 317.917 234.163 317.951 232.078 317.867 229.996 C 317.867 228.994 317.867 227.992 317.867 226.869 L 317.867 225.326 L 319.1 226.238 C 319.712 226.689 320.253 227.09 320.734 227.461 L 320.794 227.461 C 321.796 228.182 322.508 228.733 323.28 229.265 C 328.322 232.704 334.285 234.541 340.389 234.537 C 348.848 234.537 356.426 231.159 361.056 225.276 C 366.378 218.57 368.072 210.241 366.268 199.166 C 364.835 190.075 361.698 181.576 357.428 171.603 C 356.426 169.257 355.614 166.912 354.752 164.416 L 354.702 164.286 C 354.331 163.193 353.94 162.101 353.539 160.978 L 353.208 160.076 L 354.16 159.946 L 355.744 159.715 L 355.844 159.715 C 356.847 159.565 357.689 159.435 358.561 159.375 C 361.954 159.276 365.13 157.684 367.24 155.025 C 369.073 152.34 369.617 148.979 368.724 145.854 C 368.082 143.148 369.024 141.955 370.869 140.842 C 384.079 132.764 397.46 124.505 410.389 116.517 L 416.914 112.507 C 425.765 106.982 430.311 96.587 428.36 86.338 Z M 349.179 76.234 L 383.006 129.937 L 374.206 135.64 L 340.058 81.777 Z M 337.973 168.385 C 332.651 158.162 328.231 149.652 323.791 140.822 C 322.25 137.41 323.697 133.39 327.058 131.741 C 328.075 131.205 329.206 130.923 330.356 130.92 C 333.022 130.957 335.47 132.402 336.791 134.718 C 337.973 136.723 339.006 138.778 340.018 140.802 L 340.158 141.093 L 340.91 142.606 C 341.812 144.39 342.721 146.171 343.636 147.949 C 346.042 152.659 348.528 157.53 350.813 162.432 C 352.006 164.702 351.941 167.427 350.642 169.638 C 349.543 171.392 347.61 172.447 345.541 172.425 L 345.541 172.545 L 345.541 172.545 L 345.541 172.394 C 341.812 172.394 339.387 171.081 337.973 168.385 Z M 299.084 195.447 C 298.468 195.448 297.854 195.364 297.26 195.197 C 295.39 194.625 293.829 193.325 292.93 191.588 L 282.677 171.112 C 281.127 168.106 281.816 164.431 284.351 162.191 C 284.541 162.041 284.742 161.89 284.942 161.76 C 285.735 161.222 286.67 160.932 287.628 160.928 C 289.335 161.009 290.933 161.789 292.048 163.083 C 292.894 163.986 293.615 164.997 294.193 166.09 L 294.193 166.15 C 297.28 172.164 300.778 179.02 304.106 185.825 C 305.93 189.544 305.208 192.901 302.242 194.585 C 301.279 195.136 300.193 195.432 299.084 195.447 Z M 294.584 162.061 C 293.752 160.457 292.88 158.793 292.138 157.049 C 291.241 155.083 291.3 152.812 292.299 150.895 C 293.177 149.223 294.739 148.016 296.579 147.588 C 297.137 147.456 297.709 147.389 298.283 147.387 C 300.853 147.442 303.229 148.768 304.627 150.925 C 309.829 160.337 314.58 169.688 318.549 177.596 C 319.626 179.518 319.865 181.798 319.21 183.901 C 318.567 185.707 317.197 187.161 315.432 187.91 C 314.424 188.393 313.322 188.65 312.204 188.662 C 309.618 188.596 307.29 187.075 306.191 184.733 C 303.565 179.791 301.009 174.71 298.543 169.829 L 298.543 169.829 C 297.568 167.898 296.592 165.963 295.616 164.025 C 295.336 163.464 295.035 162.893 294.744 162.331 Z M 332.481 179.31 C 331.092 180.172 329.494 180.636 327.86 180.653 C 325.282 180.683 322.868 179.389 321.466 177.226 C 319.609 174.265 317.913 171.207 316.384 168.065 L 316.234 167.774 C 315.933 167.193 315.642 166.611 315.342 166.04 L 314.921 165.218 C 311.373 158.342 307.714 151.186 304.266 144.17 C 303.009 141.741 303.143 138.826 304.617 136.522 C 306.281 134.002 309.136 132.529 312.154 132.634 L 312.355 132.634 C 315.402 132.838 318.093 134.691 319.371 137.465 C 324.753 148.069 330.015 158.453 335.307 169.087 C 337.312 173.216 336.27 177.035 332.481 179.34 Z M 319.271 89.104 C 318.746 91.048 317.522 92.729 315.833 93.825 C 293.883 107.446 270.148 122.079 238.867 141.253 C 237.95 141.773 236.913 142.042 235.86 142.035 C 235.619 142.051 235.378 142.051 235.138 142.035 C 203.957 138.026 179.34 114.021 175.261 83.601 C 171.773 57.542 180.694 35.752 201.772 18.723 C 215.363 7.698 231.089 3.067 254.342 3.067 L 255.715 3.067 C 277.625 3.879 298.473 17.099 311.493 38.448 C 320.604 53.412 323.23 70.471 319.271 89.134 Z M 287.688 187.018 L 288.931 189.213 C 289.492 190.215 289.933 191.037 290.435 191.909 C 292.7 196.109 295.637 198.163 299.706 198.364 C 300.879 198.424 301.941 199.677 302.382 200.369 C 305.94 206.272 309.558 212.396 312.756 217.889 L 313.658 219.422 C 314.004 219.937 314.205 220.536 314.239 221.156 C 314.239 225.265 314.239 229.335 314.239 233.635 L 314.239 238.125 L 313.517 238.125 C 312.204 238.225 310.922 238.345 309.789 238.456 C 307.383 238.676 305.108 238.897 302.843 238.897 L 302.673 238.897 C 281.895 238.796 260.997 238.646 240.781 238.496 L 216.726 238.325 L 205.089 238.325 L 204.598 236.541 Z M 306.732 194.144 C 307.16 193.656 307.499 193.096 307.734 192.49 C 307.925 192.07 308.095 191.709 308.295 191.338 L 308.526 190.907 L 309.027 190.907 C 309.839 190.967 310.561 190.997 311.242 190.997 C 317.056 190.997 319.732 188.992 322.267 182.919 L 322.488 182.367 L 323.079 182.448 C 324.971 182.737 326.879 182.904 328.792 182.949 C 333.754 182.949 335.618 181.004 339.467 174.349 L 340.118 173.236 L 340.81 174.399 L 342.363 176.855 C 343.486 178.619 344.548 180.293 345.581 182.037 C 348.097 186.266 350.542 190.486 352.847 194.575 C 353.439 195.578 353.96 196.069 354.551 196.069 C 354.839 196.055 355.118 195.968 355.363 195.818 C 355.64 195.711 355.864 195.498 355.985 195.227 C 356.105 194.796 355.764 194.154 355.303 193.352 C 354.17 191.348 353.018 189.343 351.875 187.419 L 351.795 187.289 L 351.735 187.178 C 350.398 184.893 349.062 182.605 347.726 180.313 C 347.255 179.491 346.824 178.649 346.413 177.837 C 346.222 177.456 346.032 177.075 345.841 176.714 L 345.501 176.063 L 353.82 171.051 L 354.16 171.883 C 354.591 172.886 355.022 173.948 355.463 174.98 C 359.853 185.424 364.394 196.219 364.033 208.257 C 363.981 215.045 361.135 221.513 356.165 226.137 C 351.998 229.816 346.619 231.826 341.06 231.78 C 340.409 231.78 339.757 231.78 339.106 231.71 C 329.464 230.959 321.686 225.977 316.003 216.906 C 313.999 213.679 312.094 210.321 310.26 207.064 L 310.26 207.064 L 310.15 206.873 C 308.937 204.718 307.674 202.483 306.391 200.328 C 305.249 198.344 304.507 196.289 306.732 194.144 Z M 350.211 154.814 C 348.969 152.73 347.796 150.645 346.563 148.44 L 346.513 148.36 L 344.849 145.353 L 345.35 144.942 C 348.563 142.233 352.644 140.77 356.847 140.822 C 357.657 140.822 358.467 140.866 359.272 140.953 C 363.124 141.341 366.109 144.493 366.288 148.36 C 366.58 152.262 363.821 155.732 359.954 156.328 C 358.579 156.552 357.187 156.656 355.794 156.638 C 354.792 156.638 353.86 156.638 352.918 156.568 L 352.447 156.568 C 351.474 156.518 350.552 155.406 350.201 154.814 Z M 147.748 169.468 C 148.869 168.827 150.135 168.482 151.427 168.466 C 154.358 168.532 157.031 170.156 158.443 172.725 C 160.928 176.945 163.304 181.265 165.599 185.444 L 167.393 188.702 C 169.317 192.19 171.192 195.598 172.996 199.126 C 173.379 199.942 173.668 200.8 173.858 201.682 C 173.918 201.912 173.958 202.092 173.998 202.223 L 173.998 202.333 L 173.998 202.463 C 173.928 206.292 171.853 209.159 168.425 210.131 C 167.822 210.302 167.198 210.39 166.571 210.391 C 163.939 210.355 161.522 208.929 160.217 206.643 C 158.132 203.085 156.157 199.396 154.203 195.838 L 153.05 193.693 L 153.05 193.643 C 150.565 189.053 148.039 184.312 145.583 179.611 C 142.546 173.517 145.653 170.64 147.788 169.468 Z M 163.234 174.479 C 163.793 174.38 164.359 174.329 164.927 174.329 C 167.934 174.329 171.212 175.722 175.672 178.849 L 176.674 179.531 L 167.654 184.973 L 162.211 174.67 Z M 193.242 158.443 L 193.242 159.375 C 193.322 161.459 193.393 163.434 193.563 165.439 C 193.888 167.629 192.762 169.78 190.777 170.761 C 187.639 172.535 184.602 174.419 181.756 176.334 C 181.042 176.815 180.201 177.073 179.34 177.075 C 178.495 177.075 177.668 176.824 176.965 176.354 C 171.613 172.765 166.782 170.34 160.577 170.139 L 158.823 170.079 L 160.046 168.816 C 160.698 168.155 161.339 167.473 161.991 166.812 C 163.374 165.368 164.787 163.885 166.23 162.462 C 176.123 152.669 187.88 144.491 202.173 137.475 C 203.669 136.751 205.311 136.377 206.974 136.382 C 210.262 136.375 213.407 137.728 215.664 140.121 C 217.588 142.175 219.432 144.26 221.377 146.475 L 221.377 146.475 L 221.547 146.676 L 224.043 149.492 L 224.664 150.194 L 196.6 167.233 L 195.066 158.212 C 194.959 157.776 194.574 157.464 194.124 157.45 C 193.882 157.449 193.65 157.547 193.483 157.721 C 193.318 157.919 193.246 158.178 193.282 158.433 Z M 139.249 226.518 C 138.092 227.171 136.788 227.516 135.46 227.521 C 133.089 227.503 130.887 226.289 129.607 224.293 C 128.373 222.416 127.239 220.476 126.209 218.48 L 125.457 217.067 C 121.869 210.462 118.361 204.037 114.953 197.552 C 114.437 196.534 113.998 195.479 113.64 194.395 L 113.64 194.295 C 113.54 194.024 113.45 193.783 113.369 193.583 L 113.369 193.453 L 113.369 193.302 C 113.369 189.443 115.133 186.898 118.682 185.745 C 119.451 185.489 120.256 185.353 121.067 185.344 C 123.337 185.317 125.432 186.558 126.499 188.561 C 129.717 194.144 132.854 199.857 135.891 205.38 L 138.687 210.472 C 139.87 212.607 141.093 214.822 142.165 217.097 C 143.839 220.865 142.757 224.454 139.249 226.518 Z M 126.73 233.394 C 125.556 234.442 124.034 235.014 122.46 234.998 C 121.062 234.998 119.695 234.575 118.541 233.785 C 117.578 233.188 116.757 232.388 116.136 231.44 C 112.127 224.424 108.428 217.407 104.359 209.58 C 102.855 206.693 103.026 204.097 104.85 202.062 C 105.995 200.704 107.674 199.911 109.45 199.887 C 110.188 199.893 110.92 200.021 111.615 200.268 C 112.991 200.721 114.183 201.607 115.013 202.794 C 119.022 209.97 123.633 218.069 127.752 226.147 C 129.125 228.814 128.745 231.53 126.73 233.354 Z M 107.857 222.038 C 109.465 224.085 110.812 226.324 111.866 228.703 C 114.151 233.354 116.116 237.363 121.799 237.564 L 122.26 237.564 L 122.47 237.975 C 123.011 239.057 123.473 240.16 123.914 241.222 C 124.916 243.537 125.788 245.702 127.271 247.146 C 128.755 248.589 130.839 249.361 133.105 250.152 C 134.157 250.543 135.25 250.954 136.322 251.435 L 136.693 251.606 L 136.763 252.017 C 136.853 252.538 136.913 253.149 136.983 253.731 C 137.066 257.17 138.358 260.47 140.632 263.052 C 141.143 263.754 141.634 264.475 142.175 265.247 L 142.827 266.249 L 96.721 273.927 L 96.501 273.305 C 94.613 267.343 91.243 261.957 86.708 257.65 C 85.79 256.74 85.612 255.32 86.277 254.212 C 91.82 245.321 97.303 236.712 103.076 227.601 L 107.145 221.186 Z M 159.305 210.391 L 159.305 210.482 C 159.305 214.33 157.37 217.267 154.053 218.5 C 153.163 218.837 152.218 219.007 151.266 219.001 C 148.188 219.005 145.301 217.509 143.528 214.992 C 141.885 212.486 140.461 209.89 139.018 207.224 C 135.27 200.258 131.24 192.681 126.71 184.061 C 123.934 178.759 124.906 174.419 129.446 171.813 C 130.727 171.066 132.183 170.668 133.666 170.661 C 134.391 170.662 135.112 170.76 135.811 170.951 C 138.363 171.763 140.481 173.57 141.684 175.963 C 147.137 185.915 152.268 195.628 157.941 206.392 C 158.424 207.374 158.797 208.406 159.054 209.469 L 159.054 209.55 C 159.124 209.81 159.184 210.041 159.244 210.221 Z M 394.433 122.901 L 385.252 128.915 L 351.314 74.861 L 360.585 69.058 Z M 414.478 110.693 L 402.842 117.89 L 396.678 121.709 L 362.6 67.434 L 363.301 67.033 C 365.607 65.71 367.912 64.327 369.957 63.114 C 375.028 60.108 379.809 57.231 384.921 54.775 C 387.416 53.563 390.155 52.935 392.929 52.941 C 397.099 53.012 401.165 54.252 404.666 56.519 C 416.694 63.906 423.71 74.681 425.604 88.593 C 426.807 97.814 422.998 105.471 414.509 110.693 Z M 397.84 260.456 C 397.884 260.64 397.911 260.828 397.921 261.017 C 397.947 261.316 397.814 261.606 397.57 261.779 C 397.418 261.899 397.232 261.966 397.039 261.969 C 396.935 261.969 396.833 261.949 396.738 261.909 C 396.487 261.819 396.257 261.729 396.046 261.629 C 395.952 261.577 395.867 261.509 395.796 261.428 C 395.325 260.943 394.678 260.668 394.002 260.666 C 393.511 260.666 393.031 260.816 392.628 261.097 L 392.027 261.508 C 390.646 262.509 389.21 263.432 387.727 264.275 L 387.727 264.275 L 387.727 264.275 L 387.537 264.275 C 387.313 264.264 387.103 264.163 386.955 263.994 C 386.709 263.721 386.646 263.328 386.795 262.992 C 386.842 262.877 386.91 262.771 386.996 262.681 C 387.945 261.886 388.95 261.159 390.002 260.506 C 390.757 260.04 391.193 259.196 391.135 258.311 C 391.075 257.449 390.559 256.685 389.782 256.307 C 388.068 255.455 386.454 254.663 384.841 253.881 L 384.219 253.61 C 383.377 253.25 383.057 253.069 382.966 252.869 L 382.966 252.869 L 382.966 252.869 C 382.961 252.728 382.995 252.589 383.067 252.468 L 383.067 252.378 L 383.157 252.378 C 383.552 252.254 383.965 252.197 384.38 252.207 C 384.758 252.196 385.135 252.253 385.492 252.378 C 386.729 252.922 387.934 253.538 389.1 254.222 C 390.551 255.082 392.065 255.829 393.631 256.457 C 396.086 257.269 397.349 258.492 397.84 260.456 Z M 378.677 271.261 C 378.797 271.508 378.865 271.778 378.877 272.053 L 378.877 272.123 L 378.877 272.183 C 376.963 275.28 374.868 278.367 372.863 281.374 L 372.522 281.905 L 373.024 282.597 L 372.613 282.887 L 372.112 282.206 L 371.881 282.206 C 371.694 282.154 371.54 282.022 371.46 281.845 C 371.297 281.522 371.159 281.187 371.049 280.843 L 371.049 280.742 L 371.099 280.652 C 372.753 277.826 374.738 274.819 377.333 271.201 L 377.384 271.13 L 377.464 271.13 C 377.634 271.089 377.809 271.069 377.985 271.07 C 378.16 271.07 378.335 271.087 378.506 271.12 L 378.616 271.12 Z M 402.952 272.624 C 403.098 272.797 403.17 273.02 403.153 273.245 L 402.782 283.028 L 402.782 283.138 L 402.701 283.208 L 402.561 283.318 C 402.398 283.437 402.202 283.503 402 283.509 L 401.819 283.509 C 401.576 283.467 401.359 283.33 401.218 283.128 C 401.107 282.984 401.032 282.815 400.998 282.637 C 400.947 279.49 401.058 276.272 401.328 273.075 C 401.344 272.963 401.385 272.857 401.449 272.764 C 401.588 272.523 401.833 272.363 402.11 272.333 L 402.24 272.333 C 402.507 272.332 402.763 272.436 402.952 272.624 Z M 377.805 299.946 C 377.922 300.349 377.725 300.776 377.343 300.949 C 377.197 301.014 377.046 301.071 376.892 301.119 L 376.812 301.119 L 376.732 301.119 C 373.182 299.719 370.555 296.653 369.716 292.93 L 369.716 292.85 C 369.745 292.711 369.792 292.576 369.856 292.449 C 370.007 292.159 370.301 291.972 370.628 291.958 L 370.688 291.958 C 370.958 291.962 371.2 292.123 371.31 292.369 C 372.633 295.877 374.587 298.112 377.464 299.385 L 377.554 299.385 L 377.554 299.465 C 377.651 299.616 377.738 299.774 377.815 299.936 Z M 397.79 293.371 L 397.85 293.532 L 397.72 293.652 C 395.325 295.827 392.909 297.922 390.333 300.147 L 390.233 300.237 C 389.926 300.508 389.53 300.658 389.12 300.658 C 388.744 300.647 388.385 300.493 388.118 300.227 L 388.028 300.167 L 388.028 300.057 C 387.973 299.694 388.004 299.323 388.118 298.974 L 388.118 298.974 L 388.118 298.974 C 390.634 296.97 393.38 294.965 396.517 292.8 L 396.517 292.8 L 396.517 292.8 C 396.607 292.782 396.699 292.782 396.788 292.8 C 396.98 292.796 397.171 292.83 397.349 292.9 L 397.349 292.9 L 397.349 292.9 C 397.523 293.029 397.675 293.185 397.8 293.361 Z M 201.341 327.449 L 201.431 327.55 L 201.431 327.68 C 201.328 328.026 201.139 328.34 200.88 328.592 L 200.88 328.592 L 200.83 328.592 C 197.562 329.404 194.224 330.085 190.897 330.597 L 190.897 330.597 L 190.837 330.597 C 190.513 330.465 190.225 330.259 189.995 329.995 L 189.925 329.905 L 189.925 329.795 C 190.005 329.491 190.149 329.208 190.346 328.963 L 190.346 328.913 L 190.426 328.913 C 192.942 328.301 195.517 327.81 198.254 327.279 L 199.958 326.948 C 200.061 326.938 200.165 326.938 200.268 326.948 C 200.695 326.937 201.105 327.113 201.391 327.429 Z M 240.771 310.911 C 240.79 311.17 240.741 311.429 240.631 311.663 L 240.631 311.723 L 240.57 311.723 C 237.564 313.527 234.446 315.261 231.339 316.885 L 231.249 316.885 L 231.159 316.885 C 230.945 316.83 230.746 316.727 230.578 316.584 L 230.578 316.584 L 230.578 316.584 C 230.488 316.361 230.437 316.124 230.427 315.883 L 230.427 315.722 L 230.548 315.642 C 233.083 314.039 235.619 312.525 238.305 310.921 L 239.127 310.43 C 239.34 310.307 239.582 310.241 239.829 310.24 C 239.941 310.242 240.052 310.259 240.16 310.29 C 240.452 310.358 240.698 310.553 240.831 310.821 L 240.831 310.821 Z M 416.623 249.571 C 416.651 249.924 416.455 250.257 416.132 250.403 C 413.125 251.716 410.249 252.979 407.312 254.041 L 407.312 254.041 L 407.262 254.041 C 406.914 254.019 406.603 253.818 406.44 253.51 C 406.343 253.269 406.343 252.999 406.44 252.758 C 406.44 252.668 406.5 252.608 406.51 252.578 L 406.51 252.498 L 406.59 252.498 C 409.488 251.022 412.47 249.717 415.521 248.589 L 415.581 248.589 C 415.722 248.594 415.861 248.625 415.992 248.679 C 416.36 248.825 416.608 249.175 416.623 249.571 Z M 137.344 327.339 C 137.444 327.664 137.492 328.002 137.485 328.341 L 137.485 328.472 L 137.374 328.542 C 137.174 328.66 136.958 328.751 136.733 328.812 L 136.643 328.812 C 133.325 327.94 130.048 326.968 126.9 325.896 L 126.9 325.896 C 126.66 325.695 126.48 325.431 126.379 325.134 L 126.379 325.034 L 126.379 324.944 L 126.439 324.853 C 126.686 324.509 127.088 324.31 127.512 324.322 C 127.658 324.322 127.803 324.342 127.943 324.382 L 129.426 324.803 C 132.152 325.595 134.728 326.327 137.234 327.179 L 137.344 327.179 Z M 292.439 271.692 L 292.439 271.812 L 292.349 271.882 C 290.004 273.887 287.538 275.761 285.153 277.615 L 283.679 278.748 L 283.679 278.748 L 283.629 278.748 L 283.549 278.748 L 283.459 278.748 L 283.368 278.698 L 283.318 278.698 C 283.109 278.587 282.914 278.453 282.737 278.297 L 282.737 278.297 L 282.737 278.237 C 282.706 277.972 282.741 277.703 282.837 277.455 L 282.837 277.455 L 282.837 277.455 C 285.844 274.949 288.58 272.774 291.246 270.8 L 291.297 270.8 L 291.497 270.8 C 291.723 270.8 291.947 270.841 292.159 270.92 L 292.249 270.92 L 292.249 271.01 C 292.349 271.226 292.413 271.456 292.439 271.692 Z M 351.895 248.238 L 351.975 248.378 L 351.895 248.509 C 351.734 248.756 351.526 248.971 351.284 249.14 L 351.284 249.14 L 351.284 249.14 C 347.836 249.651 344.719 249.982 341.752 250.142 L 341.682 250.142 L 341.612 250.142 L 341.451 250.022 C 341.208 249.825 341.062 249.533 341.05 249.22 C 341.042 248.985 341.116 248.755 341.261 248.569 L 341.311 248.509 L 341.391 248.509 C 342.859 248.216 344.341 247.999 345.831 247.857 C 346.282 247.857 346.693 247.767 347.084 247.717 C 347.676 247.717 348.207 247.627 348.688 247.577 C 349.169 247.526 349.81 247.466 350.282 247.466 C 350.544 247.462 350.806 247.486 351.063 247.536 C 351.402 247.686 351.69 247.93 351.895 248.238 Z M 99.508 309.508 L 99.578 309.619 L 98.856 310.06 C 98.865 310.123 98.865 310.187 98.856 310.25 C 98.798 310.437 98.658 310.588 98.475 310.661 C 98.238 310.768 97.994 310.858 97.744 310.932 L 97.633 310.932 L 97.533 310.861 C 95.058 309.107 92.522 307.113 89.344 304.397 L 89.264 304.336 L 89.264 304.246 C 89.232 303.993 89.232 303.737 89.264 303.484 L 89.264 303.404 L 89.334 303.354 C 89.592 303.196 89.885 303.103 90.186 303.084 L 90.236 303.084 L 90.307 303.134 C 92.993 305.138 95.639 307.253 98.195 309.328 L 98.546 309.598 L 99.277 309.157 L 99.337 309.268 L 99.337 309.268 L 99.468 309.478 Z M 83.471 296.188 L 83.661 296.649 L 82.89 296.97 C 82.88 297.036 82.86 297.1 82.83 297.16 C 82.74 297.339 82.574 297.468 82.379 297.511 C 82.133 297.582 81.881 297.632 81.627 297.661 L 81.507 297.661 L 81.426 297.581 C 79.241 295.466 77.046 293.111 74.32 289.933 L 74.26 289.863 L 74.26 289.773 C 74.27 289.518 74.314 289.265 74.39 289.021 L 74.39 288.951 L 74.47 288.901 C 74.699 288.806 74.944 288.758 75.192 288.761 L 75.443 288.761 L 75.503 288.821 C 77.848 291.196 80.113 293.692 82.298 296.108 L 82.649 296.478 Z M 275.37 284.802 C 275.661 285.203 275.46 285.664 274.699 286.345 C 273.937 287.027 273.346 287.558 272.694 288.179 L 272.634 288.24 C 271.12 289.623 269.557 291.046 267.893 292.329 L 267.843 292.329 L 267.642 292.329 C 267.351 292.323 267.075 292.196 266.881 291.978 C 266.652 291.721 266.553 291.375 266.61 291.036 L 266.61 290.946 L 266.67 290.946 C 268.675 289.081 270.79 287.317 272.854 285.604 L 273.917 284.722 C 274.128 284.546 274.394 284.45 274.669 284.451 L 274.789 284.451 C 275.022 284.483 275.233 284.61 275.37 284.802 Z M 259.825 298.132 C 260.085 298.563 259.825 299.004 259.023 299.606 C 258.221 300.207 257.509 300.738 256.758 301.32 C 255.124 302.552 253.44 303.835 251.676 304.948 L 251.676 304.948 L 251.536 304.948 C 251.217 304.943 250.919 304.787 250.734 304.527 C 250.518 304.24 250.451 303.868 250.553 303.525 L 250.553 303.454 L 250.624 303.404 C 252.778 301.74 255.054 300.167 257.259 298.653 L 258.401 297.862 C 258.597 297.731 258.827 297.661 259.063 297.661 C 259.143 297.651 259.223 297.651 259.303 297.661 C 259.538 297.734 259.729 297.906 259.825 298.132 Z M 26.861 270.75 C 26.883 271.112 26.668 271.448 26.33 271.581 C 23.323 272.584 20.367 273.586 17.42 274.268 L 17.36 274.268 C 17.227 274.26 17.098 274.226 16.979 274.167 C 16.722 274.052 16.526 273.834 16.438 273.566 C 16.36 273.363 16.36 273.138 16.438 272.935 L 16.267 272.794 L 16.678 272.644 C 19.659 271.52 22.7 270.566 25.789 269.787 L 25.849 269.787 C 25.973 269.8 26.095 269.831 26.21 269.878 C 26.58 270.015 26.835 270.356 26.861 270.75 Z M 9.572 277.525 C 9.719 277.882 9.608 278.293 9.301 278.527 C 6.695 280.342 4.139 282.106 1.513 283.619 L 1.513 283.619 L 1.032 283.619 C 0.753 283.582 0.502 283.429 0.341 283.198 C 0.228 283.012 0.178 282.794 0.2 282.577 L 0 282.496 L 0.351 282.226 C 2.882 280.314 5.519 278.548 8.249 276.934 C 8.33 276.875 8.43 276.85 8.53 276.864 L 8.71 276.864 C 9.102 276.896 9.439 277.154 9.572 277.525 Z M 369.876 250.293 C 367.411 250.062 365.276 249.872 363.181 249.521 L 363.181 249.521 L 363.181 249.521 C 363.078 249.465 362.986 249.391 362.91 249.3 C 362.696 249.069 362.603 248.749 362.66 248.439 C 362.707 248.181 362.865 247.958 363.091 247.827 L 363.151 247.827 L 363.221 247.827 C 366.327 248.052 369.419 248.447 372.482 249.01 C 372.835 249.185 373.127 249.461 373.324 249.802 L 373.435 249.982 L 373.274 250.112 C 372.953 250.393 372.538 250.544 372.111 250.533 L 371.881 250.533 Z M 221.537 320.634 C 221.68 321.005 221.589 321.426 221.306 321.706 C 221.219 321.8 221.113 321.875 220.996 321.927 L 220.855 321.977 C 218.059 323.099 215.162 324.262 212.246 325.134 L 212.186 325.134 L 212.125 325.134 C 211.811 325.066 211.556 324.837 211.454 324.533 C 211.335 324.212 211.388 323.853 211.594 323.58 C 211.643 323.518 211.705 323.467 211.775 323.43 C 213.438 322.658 215.202 321.997 216.916 321.355 C 217.919 320.995 218.921 320.604 219.923 320.203 C 220.195 320.078 220.487 320.007 220.785 319.992 C 221.256 320.002 221.407 320.353 221.537 320.634 Z M 180.022 331.218 L 180.082 331.328 L 180.082 331.438 C 179.984 331.649 179.852 331.842 179.691 332.01 C 179.54 332.147 179.344 332.225 179.14 332.23 L 170.189 332.631 C 169.999 332.637 169.814 332.573 169.668 332.451 L 169.568 332.361 C 169.237 332.028 169.237 331.49 169.568 331.158 L 169.568 331.017 L 169.819 331.017 C 172.996 330.697 176.183 330.526 179.3 330.506 L 179.36 330.506 L 179.421 330.506 C 179.666 330.698 179.868 330.941 180.012 331.218 Z M 117.389 320.503 C 117.419 320.598 117.419 320.7 117.389 320.794 C 117.344 320.976 117.218 321.128 117.048 321.205 L 116.657 321.385 L 117.088 321.907 L 116.156 321.526 C 113.49 320.423 110.703 319.08 107.135 317.166 L 107.075 317.166 L 107.075 317.106 C 106.958 316.872 106.877 316.622 106.834 316.364 L 106.834 316.294 L 106.834 316.224 C 107.026 315.975 107.269 315.769 107.546 315.622 L 107.656 315.572 L 107.767 315.622 C 110.944 317.096 114.111 318.749 117.198 320.353 L 117.308 320.413 L 117.389 320.413 Z M 47.639 270.188 C 47.788 270.393 47.843 270.652 47.789 270.9 C 47.738 271.142 47.584 271.35 47.368 271.471 L 47.288 271.471 L 47.288 271.622 L 46.998 271.622 C 44.301 271.407 41.623 271.012 38.979 270.439 C 38.719 270.37 38.471 270.258 38.248 270.108 C 37.98 269.967 37.802 269.699 37.776 269.397 C 37.749 269.095 37.878 268.8 38.117 268.615 L 38.117 268.615 C 38.272 268.488 38.468 268.42 38.668 268.424 L 38.819 268.424 L 40.914 268.765 C 43.279 269.146 45.324 269.477 47.278 269.918 L 47.278 269.918 L 47.278 269.918 C 47.414 269.985 47.536 270.077 47.639 270.188 Z M 330.917 251.576 L 330.917 251.656 C 330.912 251.955 330.84 252.25 330.707 252.518 L 330.657 252.598 L 330.566 252.598 C 328.051 253.49 325.485 254.292 322.769 255.144 L 321.215 255.635 C 321.078 255.675 320.937 255.696 320.794 255.695 C 320.43 255.719 320.079 255.557 319.862 255.264 L 319.862 255.204 L 319.862 255.134 C 319.881 254.908 319.95 254.689 320.062 254.492 L 320.062 254.412 L 320.153 254.412 C 323.691 253.099 326.928 252.007 330.035 251.075 L 330.115 251.075 L 330.196 251.075 C 330.434 251.179 330.654 251.321 330.847 251.496 Z M 437.662 243.708 L 437.662 243.858 C 437.564 244.16 437.407 244.439 437.2 244.68 L 437.15 244.68 L 437.03 244.68 C 434.615 245.351 432.139 245.903 429.493 246.494 L 427.849 246.865 C 427.726 246.88 427.601 246.88 427.478 246.865 C 427.055 246.863 426.652 246.685 426.366 246.374 L 426.255 246.254 L 426.326 246.103 C 426.477 245.776 426.721 245.501 427.027 245.311 C 430.224 244.429 433.452 243.678 436.619 243.076 L 436.689 243.076 C 436.997 243.152 437.282 243.3 437.521 243.507 Z M 310.791 259.524 L 310.791 259.594 C 310.794 259.781 310.767 259.967 310.711 260.145 L 310.711 260.226 L 310.641 260.276 C 308.185 261.779 305.629 263.212 303.234 264.606 L 301.45 265.608 L 301.34 265.608 L 301.229 265.608 L 301.139 265.538 L 301.079 265.538 L 300.848 265.377 L 300.748 265.327 L 300.748 265.227 C 300.675 264.949 300.651 264.661 300.678 264.375 L 300.678 264.255 L 300.788 264.185 C 303.956 262.23 306.932 260.506 309.879 258.933 L 309.989 258.872 L 310.1 258.923 C 310.345 259.046 310.571 259.205 310.771 259.394 Z M 157.901 331.258 C 157.913 331.589 157.739 331.898 157.45 332.06 L 157.069 332.25 L 156.929 332.25 L 156.839 332.25 L 156.468 332.17 L 155.696 332.05 L 155.696 332.11 L 155.456 332.11 L 154.263 331.97 C 152.399 331.759 150.474 331.539 148.63 331.178 L 148.43 331.178 L 148.43 331.118 L 148.359 331.068 C 148.177 330.91 148.077 330.677 148.089 330.436 C 148.09 330.182 148.218 329.945 148.43 329.805 C 148.521 329.739 148.619 329.682 148.72 329.634 L 148.72 329.725 L 148.79 329.725 L 148.79 329.604 C 151.696 329.79 154.586 330.172 157.44 330.747 L 157.5 330.747 C 157.72 330.828 157.874 331.026 157.901 331.258 Z M 275.22 71.413 C 275.31 72.596 275.41 73.829 275.46 75.042 C 275.535 77.085 274.657 79.047 273.085 80.354 C 271.966 81.306 270.545 81.829 269.076 81.827 C 268.63 81.827 268.187 81.777 267.753 81.677 C 265.501 81.22 263.849 79.291 263.744 76.996 C 263.593 75.854 263.543 74.731 263.483 73.308 C 263.483 72.596 263.423 71.814 263.373 70.932 L 263.373 69.158 C 263.373 65.329 265.277 63.225 268.976 63.064 L 269.447 63.064 C 272.884 63.064 274.739 64.949 274.959 68.657 C 275.009 69.539 275.079 70.421 275.14 71.303 Z M 226.408 73.007 C 226.408 74.2 226.408 75.433 226.408 76.645 C 226.356 78.69 225.356 80.594 223.702 81.797 C 222.638 82.588 221.349 83.017 220.023 83.02 C 219.45 83.02 218.88 82.939 218.33 82.779 C 216.12 82.17 214.605 80.14 214.651 77.848 C 214.581 76.716 214.651 75.593 214.651 74.17 C 214.651 73.508 214.651 72.807 214.651 72.035 L 213.879 72.035 L 213.879 71.534 L 214.681 71.534 C 214.681 71.193 214.741 70.612 214.781 70.02 C 214.992 66.282 216.987 64.297 220.555 64.297 L 220.765 64.297 C 224.514 64.377 226.398 66.372 226.378 70.251 C 226.378 71.163 226.398 72.075 226.408 73.007 Z M 259.714 94.887 C 260.045 95.15 260.24 95.547 260.246 95.97 C 260.102 96.782 259.64 97.504 258.963 97.974 C 254.69 101.368 249.384 103.197 243.928 103.156 L 243.176 103.156 C 238.165 103.156 233.885 101.001 229.986 98.676 C 229.274 98.318 228.726 97.701 228.453 96.952 C 228.361 96.393 228.511 95.821 228.864 95.378 C 229.031 95.077 229.307 94.851 229.635 94.747 L 229.786 94.747 C 230.524 94.918 231.211 95.262 231.79 95.749 C 235.315 98.381 239.571 99.852 243.968 99.959 C 248.268 99.959 252.518 98.425 256.998 95.268 C 257.656 94.91 258.394 94.727 259.143 94.737 C 259.338 94.721 259.534 94.752 259.714 94.827 L 259.714 94.827 Z" fill="rgb(162, 162, 171)" stroke="rgb(245, 240, 240)" stroke-miterlimit="10"></path></g></g></svg>