<svg xmlns="http://www.w3.org/2000/svg" width="362" height="386" fill="none"><g transform="translate(0.03 0)"><g transform="translate(0 0)"><path d="M 350.658 263.483 L 350.658 263.372 C 352.998 254.389 355.337 245.399 357.677 236.402 C 358.118 234.678 358.579 232.964 359.03 231.239 C 360.253 226.567 361.527 221.724 362.619 216.922 C 363.712 212.12 361.206 208.159 356.213 206.896 C 353.536 206.194 350.849 205.512 348.192 204.831 L 342.457 203.367 C 340.499 202.852 338.557 202.334 336.632 201.813 L 333.684 201.031 C 332.983 196.86 332.221 196.068 328.11 195.075 L 326.907 194.785 L 325.393 194.404 L 319.197 192.86 C 319.097 185.45 316.189 181.119 310.234 179.615 C 309.02 179.294 307.77 179.125 306.514 179.114 C 301.712 179.114 297.982 181.801 295.485 187.135 L 294.964 187.055 C 294.623 186.994 294.332 186.954 294.042 186.884 C 291.154 186.172 288.277 185.481 285.399 184.759 C 284.859 184.592 284.3 184.497 283.735 184.478 C 282.12 184.485 280.616 185.297 279.725 186.644 C 279.534 186.904 279.334 187.155 279.113 187.426 L 279.023 187.546 L 278.692 187.486 C 278.421 187.426 278.161 187.386 277.91 187.315 L 271.704 185.721 C 266.691 184.448 261.507 183.134 256.424 181.801 C 255.65 181.589 254.851 181.481 254.048 181.48 C 252.228 181.495 250.457 182.069 248.975 183.124 C 248.674 183.325 248.373 183.546 248.063 183.776 L 247.812 183.947 L 247.371 183.696 L 246.368 183.145 C 240.431 179.492 234.208 176.327 227.76 173.68 C 214.799 168.162 201.513 163.441 187.977 159.543 C 185.671 158.892 184.739 157.779 184.668 155.583 C 184.538 151.503 184.347 147.362 184.157 143.351 L 184.037 140.855 C 183.976 139.817 184.363 138.802 185.099 138.068 C 190.852 131.603 194.941 123.832 197.01 115.429 C 197.241 114.587 197.492 113.735 197.762 112.832 L 197.762 112.662 C 198.113 112.662 198.464 112.662 198.765 112.662 C 202.325 112.625 205.721 111.158 208.189 108.591 C 213.433 103.578 215.528 97.102 214.415 89.311 C 214.033 85.286 211.478 81.792 207.758 80.208 C 207.646 80.144 207.547 80.059 207.467 79.957 L 207.377 79.857 C 207.447 79.516 207.528 79.185 207.608 78.854 C 207.728 78.313 207.848 77.782 207.979 77.25 C 210.114 68.598 212.36 57.128 210.766 45.167 C 207.989 24.273 196.619 10.317 176.958 3.71 C 169.624 1.243 161.937 -0.01 154.199 0 C 150.511 0.006 146.826 0.257 143.171 0.752 C 136.543 1.54 130.126 3.582 124.262 6.768 C 117.675 10.407 113.544 15.27 111.629 21.646 C 111.438 22.48 110.844 23.165 110.045 23.471 C 104.671 25.717 100.811 29.948 98.244 36.414 C 96.521 40.894 95.634 45.651 95.628 50.451 C 95.557 59.055 96.691 67.627 98.996 75.917 C 99.337 77.22 99.658 78.523 99.999 79.847 L 99.999 80.088 C 96.227 81.441 93.486 84.735 92.84 88.69 C 91.337 97.202 93.723 104.22 99.939 109.564 C 101.82 111.255 104.169 112.338 106.676 112.672 C 107.342 112.743 108.012 112.78 108.681 112.782 L 109.534 112.782 L 109.634 113.083 C 109.704 113.274 109.764 113.454 109.814 113.634 C 112.221 123.51 116.321 131.531 122.367 138.168 C 122.953 138.889 123.266 139.795 123.249 140.725 C 123.179 143.452 123.039 146.219 122.918 148.896 C 122.798 151.292 122.688 153.778 122.608 156.225 C 122.547 158.23 121.505 158.972 119.85 159.493 C 113.945 161.328 107.107 163.504 100.51 165.82 C 88.028 170.271 77.651 174.282 67.605 179.435 C 58.933 183.886 52.566 188.398 47.453 193.652 C 41.881 199.596 36.994 206.147 32.885 213.182 C 22.669 229.996 15.039 247.882 8.883 263.152 C 8.697 263.642 8.547 264.144 8.432 264.656 C 7.81 267.042 8.001 267.513 10.116 268.887 C 10.607 269.197 11.119 269.488 11.6 269.789 L 12.542 270.35 C 12.081 271.804 11.62 273.238 11.159 274.662 C 10.156 277.75 9.224 280.677 8.331 283.685 C 4.602 296.197 1.003 309.692 0.16 323.508 C -0.361 331.89 0.381 338.547 2.506 344.462 C 6.386 355.24 13.856 361.657 24.714 363.512 C 26.744 363.86 28.8 364.034 30.86 364.033 C 34.865 363.995 38.85 363.452 42.721 362.419 C 50.053 360.471 57.071 357.49 63.565 353.566 C 64.096 353.255 64.667 352.954 65.319 352.614 L 65.76 352.373 L 65.76 352.914 C 65.76 353.506 65.76 353.917 65.76 354.428 C 65.68 356.544 65.59 358.659 65.51 360.785 C 65.339 365.106 65.159 369.427 65.008 373.758 C 64.908 376.566 65.48 377.348 68.247 378.18 L 68.507 378.25 C 68.747 378.329 68.992 378.392 69.239 378.44 C 71.084 378.761 72.909 379.102 74.744 379.443 C 78.844 380.205 83.095 380.997 87.306 381.549 C 97.553 382.872 108.23 384.085 119.921 385.248 C 131.27 386.371 143.181 386.922 156.355 386.922 C 158.501 386.922 160.706 386.922 162.922 386.922 C 183.301 386.551 203.63 384.759 223.76 381.559 C 228.773 380.807 233.786 379.724 238.648 378.671 L 239.49 378.491 C 242.729 377.799 243.501 376.816 243.32 373.478 C 243.06 368.077 242.789 362.68 242.508 357.286 C 242.348 354.037 242.177 350.789 242.017 347.55 C 242.017 347.009 242.017 346.468 242.017 345.886 C 242.017 345.676 242.017 345.465 242.017 345.244 L 242.338 345.244 C 242.75 345.291 243.158 345.365 243.561 345.465 L 271.072 352.573 L 299.446 359.933 L 302.604 360.755 C 306.253 361.757 310.013 362.7 313.743 363.552 C 314.643 363.763 315.565 363.87 316.49 363.873 C 320.801 363.873 323.959 361.186 325.152 356.494 C 326.275 352.049 327.408 347.614 328.551 343.189 L 330.155 337.013 C 331.439 332.1 332.762 326.987 333.995 321.974 C 334.199 320.719 335.17 319.727 336.421 319.498 C 337.917 319.11 339.371 318.576 340.763 317.904 C 345.776 315.437 348.513 312.279 349.435 307.958 C 349.668 307.125 350.164 306.39 350.849 305.862 C 353.358 304.009 354.749 301.004 354.538 297.892 C 354.495 296.776 354.908 295.69 355.681 294.884 C 357.979 292.509 358.828 289.085 357.907 285.911 C 357.349 283.832 357.618 281.618 358.659 279.735 C 360.034 277.164 359.704 274.015 357.827 271.784 C 356.589 270.299 355.249 268.902 353.817 267.603 L 352.483 266.33 C 352.006 265.876 351.497 265.457 350.959 265.077 L 350.398 264.646 L 350.488 264.235 C 350.548 263.954 350.598 263.683 350.658 263.483 Z M 348.302 303.587 C 347.15 304.528 346.316 305.803 345.916 307.236 C 345.304 310.093 343.59 312.249 340.532 314.004 C 339.479 314.572 338.391 315.071 337.274 315.497 C 336.782 315.698 336.271 315.908 335.71 316.149 C 335.88 315.457 336.02 314.806 336.161 314.144 C 336.502 312.67 336.782 311.397 337.163 310.134 C 337.729 308.739 337.323 307.139 336.161 306.183 C 334.212 304.417 332.157 302.773 330.005 301.261 C 328.777 300.463 327.509 299.731 326.205 299.065 C 325.263 298.564 324.29 298.062 323.368 297.481 C 322.381 296.876 321.484 296.137 320.701 295.285 C 319.898 294.476 319.792 293.208 320.45 292.277 C 320.815 291.645 321.495 291.261 322.225 291.275 C 322.512 291.276 322.797 291.327 323.067 291.425 L 325.613 292.307 C 330.266 293.891 335.078 295.536 338.647 299.326 C 339.307 300.018 340.098 300.574 340.973 300.96 C 341.088 301.005 341.211 301.029 341.334 301.03 C 341.863 300.997 342.365 300.785 342.758 300.428 C 343.119 300.067 342.898 299.145 342.698 298.764 C 342.411 298.253 342.038 297.795 341.595 297.411 L 341.515 297.34 C 338.772 294.496 335.438 292.289 331.749 290.874 C 328.812 289.811 325.734 288.638 322.245 287.284 C 320.824 286.764 319.444 286.141 318.114 285.419 C 316.54 284.517 315.878 283.264 316.289 281.971 C 316.7 280.677 317.823 279.965 319.538 279.965 L 319.668 279.965 C 320.588 279.984 321.504 280.088 322.405 280.276 C 328.852 281.67 337.083 284.086 343.46 290.473 C 343.548 290.558 343.642 290.639 343.74 290.713 L 343.871 290.823 C 344.335 291.279 344.939 291.565 345.585 291.636 C 346.009 291.628 346.412 291.447 346.698 291.134 C 346.999 290.861 347.176 290.478 347.189 290.072 C 347.084 289.399 346.726 288.793 346.187 288.377 C 343.51 285.73 340.171 282.813 335.97 281.189 C 332.912 280.026 329.754 279.003 326.706 278.01 C 325.222 277.529 323.698 277.008 322.265 276.547 L 321.322 276.236 C 320.357 275.953 319.418 275.587 318.515 275.143 C 316.871 274.281 316.169 272.987 316.51 271.493 C 316.851 270 318.124 269.248 319.989 269.238 L 320.119 269.238 C 321.243 269.235 322.363 269.359 323.458 269.609 C 326.145 270.22 328.852 270.882 331.479 271.523 L 334.336 272.225 C 338.248 273.277 341.858 275.235 344.873 277.94 C 345.224 278.231 345.565 278.532 345.876 278.842 C 346.536 279.468 347.243 280.041 347.991 280.557 C 348.449 280.82 348.968 280.959 349.495 280.958 C 349.781 280.974 350.065 280.901 350.307 280.747 C 350.617 280.534 350.821 280.198 350.869 279.825 C 350.872 279.196 350.627 278.591 350.187 278.141 C 349.856 277.77 349.495 277.419 349.134 277.078 L 348.914 276.877 C 344.147 272.28 338.138 269.178 331.629 267.954 C 330.307 267.696 329.002 267.361 327.719 266.952 C 327.02 266.749 326.369 266.408 325.804 265.949 C 324.989 265.304 324.648 264.229 324.942 263.232 C 325.151 262.205 326.03 261.449 327.077 261.397 C 327.666 261.323 328.258 261.283 328.852 261.277 C 329.417 261.274 329.981 261.328 330.536 261.437 L 330.606 261.437 C 334.015 262.129 337.534 262.851 340.903 263.854 C 345.907 265.439 350.382 268.362 353.847 272.306 C 355.932 274.531 356.293 276.717 354.98 279.183 C 353.818 281.274 353.571 283.752 354.298 286.031 C 355.046 288.264 354.502 290.727 352.884 292.438 C 351.558 293.861 350.838 295.746 350.879 297.691 C 351.011 299.961 350.054 302.158 348.302 303.607 Z M 324.701 214.867 C 324.982 214.937 325.273 214.987 325.563 215.037 L 325.964 215.107 C 326.514 215.237 327.075 215.311 327.639 215.328 C 329.153 215.328 329.804 214.496 330.647 212.761 L 330.857 212.28 L 331.108 211.739 C 335.319 212.671 339.429 213.744 343.76 214.887 C 346.026 215.478 348.362 216.09 350.698 216.681 L 345.896 235.149 C 343.781 243.34 341.675 251.512 339.56 259.723 L 336.983 259.222 C 334.887 258.801 332.912 258.41 330.887 258.129 C 330.207 258.029 329.52 257.979 328.832 257.978 C 327.977 257.978 327.124 258.062 326.285 258.229 C 323.087 258.921 321.563 260.916 321.603 264.345 C 321.603 264.656 321.603 264.956 321.603 265.297 C 321.603 265.448 321.603 265.598 321.603 265.769 L 321.302 265.769 L 319.808 265.889 C 316.58 266.049 314.495 267.313 313.422 269.749 C 312.349 272.185 312.83 274.762 315.046 276.978 C 315.146 277.078 315.237 277.198 315.367 277.359 L 315.487 277.519 C 313.622 279.233 312.058 281.229 312.81 284.106 C 313.562 286.984 315.628 288.197 317.934 289.44 L 317.934 289.55 C 317.943 289.61 317.943 289.671 317.934 289.731 C 316.764 291.122 316.243 292.945 316.5 294.744 C 316.938 296.805 318.227 298.586 320.049 299.646 C 321.523 300.649 323.057 301.481 324.661 302.403 C 325.313 302.764 325.974 303.145 326.666 303.536 C 322.606 319.107 318.535 334.677 314.414 350.478 L 276.717 340.773 L 221.774 326.626 C 233.344 282.051 244.834 237.776 256.414 193.281 L 275.714 198.133 L 275.845 198.314 C 275.882 198.365 275.916 198.418 275.945 198.474 C 275.784 202.134 276.125 202.605 279.564 203.487 C 290.412 206.248 301.264 208.995 312.119 211.729 Z M 277.77 192.228 C 277.569 193.04 277.358 193.862 277.138 194.765 L 276.246 194.584 C 275.243 194.374 274.24 194.173 273.318 193.942 L 269.308 192.94 C 265.538 192.018 261.638 191.055 257.858 189.932 C 257.332 189.765 256.785 189.678 256.234 189.671 C 254.549 189.671 253.467 190.674 252.925 192.83 C 250.85 200.991 248.684 209.282 246.599 217.293 C 245.556 221.303 244.517 225.29 243.481 229.254 C 238.007 250.342 232.546 271.427 227.098 292.508 L 219.077 323.588 C 217.744 328.782 218.005 329.243 223.088 330.556 L 273.057 343.43 L 297.44 349.716 C 302.684 351.07 307.807 352.393 312.961 353.726 C 313.666 353.929 314.393 354.043 315.126 354.067 C 316.911 354.067 317.543 352.904 318.134 350.598 C 319.959 343.64 321.78 336.686 323.598 329.734 L 326.315 319.347 C 327.508 314.786 328.701 310.234 329.985 305.391 L 330.396 305.692 C 330.807 305.983 331.118 306.213 331.449 306.434 C 333.454 307.747 333.915 309.301 333.193 311.968 C 330.436 322.054 327.779 332.351 325.172 342.297 C 324.21 346.047 323.241 349.793 322.265 353.536 L 322.155 353.947 C 321.915 354.965 321.62 355.969 321.272 356.955 C 320.637 359.082 318.638 360.507 316.42 360.414 L 315.758 360.414 C 314.847 360.304 313.945 360.127 313.061 359.882 C 292.207 354.535 271.36 349.171 250.519 343.791 C 242.117 341.625 233.585 339.399 225.334 337.254 L 218.315 335.419 C 217.584 335.239 216.864 335.015 216.16 334.747 C 213.935 333.96 212.516 331.776 212.701 329.423 C 212.749 328.596 212.887 327.775 213.112 326.977 C 224.876 281.68 236.643 236.386 248.413 191.095 C 249.556 186.694 250.98 185.14 253.838 185.14 C 255.083 185.181 256.318 185.373 257.517 185.711 C 263.944 187.355 270.431 189.05 276.707 190.724 C 277.03 190.817 277.348 190.927 277.659 191.055 L 278.09 191.215 Z M 318.655 196.238 C 320.45 196.72 322.275 197.151 324.039 197.572 L 326.556 198.173 L 327.037 198.284 C 327.528 198.404 328.04 198.524 328.521 198.675 C 329.011 198.777 329.436 199.081 329.69 199.512 C 329.944 199.944 330.004 200.463 329.854 200.941 C 329.303 203.487 328.711 206.014 328.1 208.691 C 327.853 209.74 327.602 210.813 327.348 211.909 C 311.306 207.949 295.656 203.999 279.434 199.878 L 280.276 196.599 C 280.878 194.293 281.439 192.108 282.051 189.932 C 282.472 188.428 282.873 187.977 283.795 187.977 C 284.242 187.992 284.686 188.056 285.119 188.168 C 288.337 188.919 291.034 189.571 293.731 190.333 C 294.289 190.493 294.865 190.577 295.445 190.584 C 297.19 190.584 298.453 189.581 299.305 187.676 C 300.461 184.583 303.422 182.538 306.725 182.553 C 307.399 182.559 308.07 182.633 308.73 182.774 C 312.806 183.504 315.727 187.117 315.587 191.256 C 315.587 191.436 315.587 191.616 315.587 191.797 C 315.587 191.977 315.587 192.108 315.587 192.268 C 315.577 194.815 316.189 195.607 318.655 196.269 Z M 347.33 262.31 L 347.239 262.61 L 343.069 260.826 L 343.159 260.274 C 343.239 259.773 343.319 259.272 343.44 258.831 C 346.835 245.61 350.244 232.392 353.666 219.178 C 354.819 214.746 354.488 214.165 350.117 213.002 C 346.688 212.079 343.189 211.177 339.8 210.305 L 334.366 208.911 L 332.752 208.46 L 331.87 208.209 C 332.17 206.836 332.431 205.663 332.712 204.349 L 339.65 206.154 L 341.986 206.766 L 345.876 207.768 C 348.964 208.55 352.142 209.362 355.26 210.225 C 358.689 211.167 359.962 213.232 359.16 216.621 C 358.068 221.113 356.874 225.645 355.731 230.066 C 355.29 231.737 354.853 233.408 354.418 235.079 L 347.801 260.705 C 347.671 261.227 347.52 261.678 347.33 262.34 Z M 69.781 284.086 C 69.781 283.595 69.851 283.083 69.891 282.632 C 70.001 281.249 70.102 279.945 70.232 278.622 C 71.154 269.451 72.09 260.278 73.039 251.101 L 73.039 250.679 C 73.039 250.399 73.039 250.118 73.119 249.847 C 73.25 248.845 73.721 248.674 74.122 248.674 L 74.302 248.674 C 74.994 248.755 75.305 249.216 75.235 250.068 C 75.074 252.073 74.894 254.138 74.623 256.886 L 73.029 273.328 L 72.187 281.89 C 72.057 283.484 72.057 283.555 69.781 284.086 Z M 155.783 253.888 C 154.711 254.299 154.27 255.021 154.55 255.943 C 154.715 256.7 155.401 257.229 156.175 257.196 C 156.411 257.194 156.647 257.164 156.876 257.106 L 158.601 256.665 C 160.045 256.294 161.548 255.903 163.042 255.612 C 163.536 255.528 164.036 255.488 164.536 255.492 C 165.099 255.498 165.662 255.535 166.221 255.602 C 168.061 255.671 169.608 257.009 169.94 258.821 C 170.433 260.85 169.588 262.97 167.835 264.104 C 166.905 264.658 165.917 265.105 164.887 265.438 C 163.834 265.789 162.731 266.099 161.669 266.44 C 160.957 266.641 160.245 266.841 159.533 267.062 L 159.242 267.142 C 158.722 267.246 158.234 267.473 157.819 267.804 C 157.35 268.268 157.127 268.925 157.217 269.578 C 157.535 270.138 158.102 270.511 158.741 270.581 L 159.042 270.581 C 159.458 270.558 159.869 270.48 160.265 270.35 L 160.576 270.26 L 162.23 269.799 C 163.052 269.558 163.895 269.318 164.737 269.117 C 165.128 269.028 165.528 268.981 165.93 268.977 C 166.916 268.935 167.87 269.331 168.537 270.06 C 169.276 270.985 169.582 272.182 169.379 273.348 C 169.251 275.261 168.128 276.967 166.421 277.84 C 165.068 278.522 163.624 279.093 162.22 279.635 L 161.057 280.096 C 160.773 280.202 160.481 280.289 160.185 280.356 C 159.716 280.443 159.265 280.609 158.851 280.848 C 158.187 281.259 157.708 281.914 157.518 282.672 C 157.477 282.972 157.572 283.274 157.779 283.495 C 158.185 283.883 158.731 284.089 159.293 284.066 C 159.533 284.066 159.772 284.036 160.004 283.976 C 160.847 283.775 161.689 283.505 162.511 283.244 L 163.183 283.033 C 163.724 282.863 164.255 282.682 164.827 282.482 L 165.529 282.241 C 167.013 285.109 166.732 287.495 164.687 289.33 C 163.318 290.554 161.761 291.55 160.075 292.277 C 151.537 296.014 142.492 298.464 133.235 299.546 C 132.573 299.626 131.912 299.727 131.23 299.827 C 130.307 299.967 129.365 300.108 128.443 300.188 C 125.075 300.56 121.928 302.045 119.499 304.409 L 114.567 308.8 C 106.145 316.279 97.432 324.009 88.69 331.399 C 77.952 340.422 68.417 347.099 58.702 352.273 C 50.972 356.373 44.345 358.79 37.838 359.852 C 35.393 360.27 32.919 360.491 30.439 360.514 C 28.446 360.524 26.458 360.332 24.503 359.943 C 15.931 358.208 9.855 353.095 6.457 344.733 C 3.9 338.587 3.008 331.619 3.74 322.836 C 4.963 307.086 9.294 291.976 13.375 279.274 C 13.896 277.639 14.467 276.015 15.069 274.261 C 15.35 273.459 15.64 272.626 15.931 271.774 C 30.806 278.202 46.018 283.821 61.499 288.608 L 60.376 289.219 L 58.151 290.473 L 51.614 294.012 L 32.915 304.168 L 32.785 304.238 C 32.058 304.604 31.383 305.066 30.78 305.612 C 30.35 306.111 30.192 306.789 30.359 307.427 C 30.711 307.984 31.314 308.332 31.973 308.359 L 31.973 308.359 C 32.685 308.277 33.37 308.037 33.978 307.657 L 36.835 306.123 C 49.578 299.315 62.752 292.277 75.686 285.309 C 80.007 282.983 84.389 280.587 88.63 278.291 C 93.402 275.694 98.335 273.007 103.197 270.401 C 107.209 268.215 110.529 264.95 112.782 260.976 C 113.354 259.974 113.965 258.971 114.697 257.668 C 118.412 250.82 123.145 244.577 128.733 239.15 C 132.916 235.117 136.456 230.468 139.231 225.364 C 139.902 224.151 140.694 222.847 141.727 221.243 C 142.264 220.246 143.292 219.612 144.424 219.579 C 144.584 219.565 144.745 219.565 144.905 219.579 C 146.108 219.749 146.911 220.582 147.452 222.105 C 148.186 224.514 148.165 227.089 147.392 229.485 C 146.332 233.4 144.754 237.156 142.7 240.654 C 142.037 242.061 140.732 243.059 139.201 243.33 C 138.117 243.571 137.057 243.907 136.032 244.333 L 135.511 244.524 C 135.007 244.679 134.594 245.045 134.378 245.526 C 134.24 245.903 134.277 246.322 134.478 246.669 C 134.916 247.254 135.585 247.619 136.313 247.672 L 136.483 247.672 C 136.923 247.65 137.356 247.559 137.767 247.401 L 138.358 247.231 L 151.633 244.092 C 161.799 241.686 172.306 239.2 182.653 236.773 C 184.256 236.431 185.876 236.173 187.506 236.001 L 188.659 235.861 C 188.991 235.815 189.326 235.792 189.661 235.791 C 190.047 235.79 190.433 235.82 190.814 235.881 C 192.559 236.142 193.531 236.884 193.892 238.127 C 194.418 239.596 193.902 241.235 192.629 242.137 C 191.192 243.133 189.614 243.907 187.947 244.433 C 180.929 246.529 173.84 248.594 166.952 250.589 L 159.694 252.655 L 159.022 252.845 C 157.959 253.186 156.846 253.507 155.783 253.888 Z M 111.188 83.677 C 111.188 83.436 111.128 83.206 111.118 82.995 C 110.731 74.965 111.583 66.924 113.644 59.153 C 114.57 56.011 115.919 53.009 117.655 50.23 C 119.379 47.343 121.535 45.999 124.442 45.999 C 125.52 46.015 126.591 46.167 127.631 46.45 L 131.31 47.453 C 135.431 48.516 139.692 49.629 143.923 50.531 C 147.22 51.215 150.581 51.551 153.949 51.534 C 159.522 51.468 165.065 50.71 170.451 49.278 L 171.454 49.027 C 174.692 48.215 178.041 47.373 181.29 46.39 C 182.096 46.129 182.938 45.991 183.786 45.979 C 185.982 45.979 187.847 47.042 189.481 49.208 C 192.259 53.041 194.115 57.463 194.905 62.131 C 195.981 67.61 196.438 73.193 196.268 78.774 C 196.268 79.316 196.268 79.847 196.268 80.378 C 196.268 81.692 196.268 83.055 196.268 84.389 C 196.272 85.121 196.599 85.814 197.161 86.284 C 197.281 86.346 197.416 86.377 197.552 86.374 C 198.117 86.307 198.66 86.119 199.146 85.822 C 199.469 85.635 199.769 85.41 200.038 85.151 C 200.205 84.989 200.383 84.838 200.57 84.699 C 201.783 83.775 203.256 83.256 204.78 83.216 C 207.337 83.216 209.493 84.9 210.545 87.717 C 211.326 90.111 211.556 92.651 211.217 95.147 C 210.842 100.155 208.212 104.721 204.069 107.559 C 202.711 108.584 201.057 109.14 199.356 109.143 C 198.822 109.141 198.288 109.091 197.762 108.992 C 197.309 108.902 196.85 108.849 196.389 108.832 C 195.155 108.832 194.865 109.564 194.534 111.138 C 193.631 115.524 192.221 119.79 190.333 123.851 C 187.04 131.12 181.874 137.383 175.364 141.998 C 162.996 151.025 146.301 151.346 133.596 142.8 C 123.47 136.243 116.893 126.758 113.484 113.725 C 113.364 113.263 113.263 112.782 113.173 112.321 C 113.083 111.86 112.922 111.108 112.752 110.506 C 112.471 109.504 112.181 108.722 111.158 108.722 C 110.794 108.737 110.434 108.798 110.085 108.902 C 109.404 109.078 108.703 109.169 108 109.173 C 105.963 109.126 104.01 108.359 102.485 107.007 C 96.911 102.536 94.795 96.049 96.53 88.75 C 97.372 85.231 99.628 83.135 102.546 83.135 C 104.355 83.205 106.092 83.867 107.488 85.02 C 107.668 85.164 107.836 85.321 107.99 85.492 C 108.365 85.996 108.93 86.326 109.554 86.404 C 109.809 86.404 110.06 86.342 110.286 86.223 C 111.459 85.622 111.288 84.549 111.188 83.677 Z M 126.147 156.786 C 126.347 153.588 126.518 150.33 126.678 147.181 L 126.859 143.582 C 126.859 143.261 126.859 142.95 126.919 142.459 C 134.541 148.84 144.149 152.364 154.089 152.425 C 163.753 152.409 173.098 148.97 180.467 142.72 L 180.467 142.86 C 180.518 143.361 180.568 143.803 180.598 144.244 L 180.598 144.835 C 180.828 148.846 181.059 152.856 181.28 156.927 C 181.44 160.005 182.834 161.869 185.541 162.631 C 185.751 162.705 185.947 162.814 186.122 162.952 L 186.373 163.113 L 185.902 163.814 C 185.44 164.506 185.009 165.158 184.528 165.82 C 179.365 172.337 172.376 176.417 163.173 178.292 C 160.096 178.94 156.962 179.276 153.818 179.295 C 147.152 179.268 140.574 177.765 134.559 174.893 C 129.054 172.361 124.378 168.322 121.074 163.243 L 121.495 162.942 C 121.824 162.677 122.188 162.457 122.577 162.29 C 125.555 161.138 126.036 158.601 126.147 156.786 Z M 271.704 215.699 L 308.8 225.123 L 327.107 229.785 L 327.488 229.866 C 327.689 229.866 327.899 229.956 328.1 230.016 C 328.688 230.138 329.197 230.502 329.504 231.019 C 329.673 231.384 329.673 231.806 329.504 232.172 C 329.243 232.607 328.859 232.956 328.401 233.174 C 328.27 233.254 328.15 233.314 328.06 233.385 L 327.97 233.455 L 327.849 233.455 L 326.636 233.164 C 325.924 233.004 325.323 232.863 324.731 232.713 L 270.701 219.058 C 270.029 218.887 269.478 218.727 268.977 218.556 C 268.531 218.461 268.149 218.179 267.926 217.782 C 267.703 217.384 267.662 216.91 267.814 216.481 C 267.972 215.733 268.656 215.216 269.418 215.268 C 269.575 215.259 269.732 215.259 269.889 215.268 C 270.471 215.408 271.002 215.558 271.704 215.699 Z M 120.402 75.997 C 120.151 75.496 120.482 74.734 120.753 74.112 L 120.753 74.032 C 120.923 73.771 121.184 73.582 121.485 73.5 L 121.715 73.4 C 122.086 73.21 122.457 73.029 122.838 72.869 C 126.051 71.446 129.53 70.721 133.045 70.743 C 135.182 70.746 137.311 70.995 139.391 71.485 L 141.286 71.936 C 141.832 72.051 142.335 72.315 142.74 72.698 C 143.141 73.117 143.32 73.701 143.221 74.272 C 142.975 74.873 142.47 75.331 141.847 75.516 C 141.721 75.526 141.593 75.526 141.466 75.516 C 140.884 75.486 140.311 75.357 139.772 75.135 C 137.712 74.384 135.538 73.998 133.345 73.992 C 130.461 74.028 127.614 74.645 124.974 75.806 C 124.713 75.917 124.462 76.047 124.202 76.167 C 123.62 76.489 122.996 76.725 122.347 76.869 L 122.146 76.869 C 121.458 76.876 120.809 76.552 120.402 75.997 Z M 166.521 75.546 C 166.751 75.543 166.98 75.513 167.203 75.456 C 167.437 75.398 167.665 75.321 167.885 75.225 L 167.955 75.225 C 170.016 74.404 172.214 73.982 174.432 73.982 C 177.242 74.024 180.019 74.589 182.623 75.646 L 183.365 75.967 C 183.656 76.097 183.956 76.228 184.267 76.338 C 184.706 76.507 185.171 76.602 185.641 76.619 C 186.335 76.69 186.986 76.275 187.215 75.616 C 187.666 74.132 186.433 73.51 185.781 73.18 L 185.611 73.109 L 185.531 73.109 L 185.42 73.109 C 182.025 71.637 178.363 70.883 174.662 70.894 C 172.691 70.896 170.725 71.104 168.797 71.515 L 167.343 71.826 C 166.85 71.956 166.377 72.155 165.94 72.418 L 165.88 72.418 C 165.021 72.793 164.626 73.792 164.997 74.653 C 165.261 75.228 165.85 75.583 166.481 75.546 Z M 185.39 73.19 M 106.736 91.236 C 108.422 93.501 109.481 96.171 109.804 98.976 L 109.804 99.077 L 109.734 99.147 L 109.564 99.367 C 109.313 99.698 108.972 100.16 108.561 100.23 L 108.401 100.23 C 107.727 100.182 107.109 99.837 106.716 99.287 C 106.428 98.738 106.219 98.151 106.095 97.543 C 106.025 97.232 105.934 96.921 105.834 96.62 C 105.182 94.705 104.2 92.61 101.824 91.607 C 101.214 91.426 100.708 90.997 100.43 90.424 C 100.304 89.987 100.37 89.517 100.611 89.131 C 100.858 88.533 101.437 88.139 102.084 88.128 C 102.542 88.146 102.984 88.296 103.358 88.559 C 104.577 89.327 105.71 90.225 106.736 91.236 Z M 197.612 98.545 C 197.401 95.026 200.73 89.903 204.079 88.519 C 204.462 88.353 204.874 88.265 205.292 88.259 C 205.749 88.24 206.194 88.407 206.525 88.723 C 206.856 89.039 207.044 89.476 207.046 89.933 L 207.046 90.033 L 206.976 90.114 C 206.914 90.204 206.857 90.298 206.806 90.394 C 206.626 90.781 206.327 91.101 205.953 91.307 C 202.845 92.54 201.863 95.317 201.121 98.014 C 201.091 98.133 201.067 98.253 201.051 98.375 C 201.035 98.723 200.9 99.056 200.67 99.317 C 200.232 99.767 199.664 100.069 199.046 100.18 C 198.979 100.19 198.911 100.19 198.845 100.18 C 198.194 99.886 197.732 99.289 197.612 98.585 Z M 307.326 185.481 L 307.226 185.481 C 306.061 185.451 304.934 185.895 304.102 186.711 C 303.271 187.528 302.806 188.646 302.814 189.812 C 302.765 191.037 303.221 192.23 304.076 193.109 C 304.931 193.989 306.11 194.479 307.336 194.464 C 309.828 194.464 311.848 192.444 311.848 189.952 C 311.848 187.46 309.828 185.44 307.336 185.44 Z M 307.386 190.734 C 306.995 190.634 306.668 190.366 306.494 190.002 C 306.594 189.618 306.863 189.301 307.226 189.14 L 307.226 189.14 C 307.509 189.216 307.773 189.353 307.998 189.541 C 308.128 189.641 308.279 189.742 308.439 189.842 L 308.058 190.213 C 307.797 190.463 307.537 190.734 307.396 190.734 L 307.396 190.854 L 307.396 190.854 Z M 307.256 188.889 M 138.158 87.757 L 138.158 92.69 C 138.047 94.977 136.161 96.774 133.872 96.774 C 131.582 96.774 129.696 94.977 129.586 92.69 L 129.586 87.757 C 129.509 86.177 130.309 84.682 131.667 83.869 C 133.024 83.056 134.719 83.056 136.077 83.869 C 137.435 84.682 138.234 86.177 138.158 87.757 Z M 178.512 87.757 L 178.512 92.69 C 178.402 94.977 176.516 96.774 174.226 96.774 C 171.937 96.774 170.051 94.977 169.94 92.69 L 169.94 87.757 C 169.864 86.177 170.663 84.682 172.021 83.869 C 173.379 83.056 175.074 83.056 176.431 83.869 C 177.789 84.682 178.589 86.177 178.512 87.757 Z" fill="rgb(162, 162, 171)"></path></g></g></svg>